<mxfile host="app.diagrams.net" modified="2023-10-16T03:31:32.384Z" agent="Mozilla/5.0 (Macintosh; Intel Mac OS X 10_15_7) AppleWebKit/605.1.15 (KHTML, like Gecko) Version/16.3 Safari/605.1.15" version="22.0.4" etag="ZpFnYKJR3YGGEYj7YeUd" type="github">
  <diagram name="ページ1" id="Fhj4VL8P5irLUN121ERm">
    <mxGraphModel>
      <root>
        <mxCell id="0" />
        <mxCell id="1" parent="0" />
      </root>
    </mxGraphModel>
  </diagram>
</mxfile>
